# xmcd
#
# Track frame offsets:
#	150
#	26019
#	48553
#	73274
#	96303
#	110512
#	130861
#	150004
#
# Disc length: 2245 seconds
#
# Revision: 0
# Processed by: cddbd v1.5.2PL0 Copyright (c) Steve Scherf et al.
# Submitted via: audiograbber 1.83.01
#
DISCID=6608c308
DTITLE=Mama Lenny and The Remedy - Punches And Hugs [CD2]
DYEAR=1900
DGENRE=
TTITLE0=Tell Me What You Need
TTITLE1=Never Never
TTITLE2=Help Me
TTITLE3=Anybody Else
TTITLE4=Big Bird
TTITLE5=Sexual Occasions
TTITLE6=Skin
TTITLE7=Soul Woman (Preprise)
EXTD=
EXTT0=
EXTT1=
EXTT2=
EXTT3=
EXTT4=
EXTT5=
EXTT6=
EXTT7=
PLAYORDER=
